# xmcd CD database file
#
# Track frame offsets:
#	150
#	18285
#	38470
#	61827
#	80490
#	97780
#	109287
#	121450
#	140215
#	164320
#	187642
#
# Disc length: 2845 seconds
#
# Revision: 0
# Processed by: cddbd v1.5.1PL2 Copyright (c) Steve Scherf et al.
# Submitted via: CDex 1.51
#
DISCID=810b1b0b
DTITLE=Various Artist - Cf Best Hits-Iii
DYEAR=1989
DGENRE=Pop
TTITLE0=Simon Le Bon/Grey Lady Of The Sea
TTITLE1=New Kids On The Block/Please Don't Go Girl
TTITLE2=Toto/Pamela
TTITLE3=Kenny Loggins/Chain Lightning
TTITLE4=Ana/Learn To Love Again
TTITLE5=Andy Williams/I'll Remember You
TTITLE6=Oscar Brown Jr./Work Song
TTITLE7=Sarah Vaughan/So Many Stars
TTITLE8=Bobbe Norris/When I Fall In Love
TTITLE9=Steve Kindler and Teja Bell/Kaimana
TTITLE10=Georgia Kelly and Steve Kindler/Sicilienne
EXTD=YEAR: 1989
EXTT0=
EXTT1=
EXTT2=
EXTT3=
EXTT4=
EXTT5=
EXTT6=
EXTT7=
EXTT8=
EXTT9=
EXTT10=
PLAYORDER=
